# xmcd
#
# Track frame offsets:
#	150
#	12509
#	23297
#	32831
#	48707
#	62621
#	76440
#	93781
#	108161
#	123078
#	136733
#	148173
#
# Disc length: 2166 seconds
#
# Revision: 1
# Processed by: cddbd v1.5.2PL0 Copyright (c) Steve Scherf et al.
# Submitted via: audiograbber 1.83.01
#
DISCID=9108740c
DTITLE=Melinda Schneider - Melinda Does Doris
DYEAR=2010
DGENRE=Country
TTITLE0=Everybody Loves A Lover
TTITLE1=Perhaps, Perhaps, Perhaps
TTITLE2=Que Sera, Sera (Whatever Will Be, Will Be)
TTITLE3=It's Magic
TTITLE4=Put 'Em In A Box
TTITLE5=The Black Hills Of Dakota
TTITLE6=Secret Love
TTITLE7=Love Somebody (with David Campbell)
TTITLE8=The Deadwood Stage
TTITLE9=Sentimental Journey
TTITLE10=Teachers Pet
TTITLE11=I'll See You In My Dreams
EXTD=
EXTT0=
EXTT1=
EXTT2=
EXTT3=
EXTT4=
EXTT5=
EXTT6=
EXTT7=
EXTT8=
EXTT9=
EXTT10=
EXTT11=
PLAYORDER=
